<mxfile host="app.diagrams.net" agent="Mozilla/5.0 (Windows NT 10.0; Win64; x64) AppleWebKit/537.36 (KHTML, like Gecko) Chrome/131.0.0.0 Safari/537.36" version="25.0.3">
  <diagram name="Page-1" id="UMkvOOIy4ZEpZGINACXe">
    <mxGraphModel dx="1358" dy="586" grid="1" gridSize="10" guides="1" tooltips="1" connect="1" arrows="1" fold="1" page="1" pageScale="1" pageWidth="850" pageHeight="1100" math="0" shadow="0">
      <root>
        <mxCell id="0" />
        <mxCell id="1" parent="0" />
        <mxCell id="pAW5YPCj9aqff0OL8yWk-1" value="&lt;div style=&quot;&quot;&gt;&lt;span style=&quot;background-color: initial;&quot;&gt;User&lt;/span&gt;&lt;/div&gt;&lt;div&gt;&lt;span style=&quot;white-space: pre;&quot;&gt;(&lt;/span&gt;Browser)&lt;/div&gt;&lt;div&gt;&lt;br&gt;&lt;/div&gt;&lt;div style=&quot;text-align: left;&quot;&gt;- Login&lt;/div&gt;&lt;div style=&quot;text-align: left;&quot;&gt;- Melihat course&lt;/div&gt;&lt;div style=&quot;text-align: left;&quot;&gt;- Menonton video pembelajaran&lt;/div&gt;&lt;div style=&quot;text-align: left;&quot;&gt;- Meninggalkan komentar&lt;/div&gt;&lt;div style=&quot;text-align: left;&quot;&gt;- Melakukan quiz sederhana&lt;/div&gt;" style="verticalAlign=top;align=center;spacingTop=8;spacingLeft=2;spacingRight=12;shape=cube;size=10;direction=south;fontStyle=4;html=1;whiteSpace=wrap;" vertex="1" parent="1">
          <mxGeometry x="340" y="90" width="220" height="150" as="geometry" />
        </mxCell>
        <mxCell id="pAW5YPCj9aqff0OL8yWk-3" value="&lt;div style=&quot;&quot;&gt;Web Browser&lt;/div&gt;&lt;div&gt;&lt;span style=&quot;white-space: pre;&quot;&gt;(localhost&lt;/span&gt;)&lt;/div&gt;&lt;div&gt;&lt;br&gt;&lt;/div&gt;&lt;div style=&quot;text-align: left;&quot;&gt;- PHP (backend)&lt;/div&gt;&lt;div style=&quot;text-align: left;&quot;&gt;- JavaScript (backend)&lt;/div&gt;&lt;div style=&quot;text-align: left;&quot;&gt;- HTML (frontend)&lt;/div&gt;&lt;div style=&quot;text-align: left;&quot;&gt;- CSS (styling)&lt;/div&gt;" style="verticalAlign=top;align=center;spacingTop=8;spacingLeft=2;spacingRight=12;shape=cube;size=10;direction=south;fontStyle=4;html=1;whiteSpace=wrap;" vertex="1" parent="1">
          <mxGeometry x="330" y="310" width="220" height="150" as="geometry" />
        </mxCell>
        <mxCell id="pAW5YPCj9aqff0OL8yWk-4" value="&lt;div style=&quot;&quot;&gt;Database&lt;/div&gt;&lt;div&gt;&lt;span style=&quot;white-space: pre;&quot;&gt;(MySQL&lt;/span&gt;)&lt;/div&gt;&lt;div&gt;&lt;br&gt;&lt;/div&gt;&lt;div style=&quot;text-align: left;&quot;&gt;- Data Users&lt;br&gt;&lt;/div&gt;&lt;div style=&quot;text-align: left;&quot;&gt;- Data Videos&lt;/div&gt;&lt;div style=&quot;text-align: left;&quot;&gt;- Data Comments&lt;/div&gt;" style="verticalAlign=top;align=center;spacingTop=8;spacingLeft=2;spacingRight=12;shape=cube;size=10;direction=south;fontStyle=4;html=1;whiteSpace=wrap;" vertex="1" parent="1">
          <mxGeometry x="340" y="520" width="220" height="150" as="geometry" />
        </mxCell>
        <mxCell id="pAW5YPCj9aqff0OL8yWk-5" value="" style="endArrow=block;dashed=1;endFill=0;endSize=12;html=1;rounded=0;entryX=0;entryY=0;entryDx=0;entryDy=105;entryPerimeter=0;exitX=0;exitY=0;exitDx=150;exitDy=115;exitPerimeter=0;" edge="1" parent="1" source="pAW5YPCj9aqff0OL8yWk-1" target="pAW5YPCj9aqff0OL8yWk-3">
          <mxGeometry width="160" relative="1" as="geometry">
            <mxPoint x="380" y="280" as="sourcePoint" />
            <mxPoint x="540" y="280" as="targetPoint" />
          </mxGeometry>
        </mxCell>
        <mxCell id="pAW5YPCj9aqff0OL8yWk-6" value="" style="endArrow=block;dashed=1;endFill=0;endSize=12;html=1;rounded=0;entryX=0;entryY=0;entryDx=0;entryDy=105;entryPerimeter=0;exitX=0;exitY=0;exitDx=150;exitDy=115;exitPerimeter=0;" edge="1" parent="1">
          <mxGeometry width="160" relative="1" as="geometry">
            <mxPoint x="449.47" y="460" as="sourcePoint" />
            <mxPoint x="449.47" y="530" as="targetPoint" />
          </mxGeometry>
        </mxCell>
      </root>
    </mxGraphModel>
  </diagram>
</mxfile>
